<svg xmlns="http://www.w3.org/2000/svg" viewBox="0 0 90 90" height="90" width="90"><g><path style="fill:#6cbe9b" d="m81.8 46.1c-1.2 5-3.7 9.7-7.6 13.6l-6.8 6.8-0.1 0.1-0.1 0.1c-5.5 5.4-13.6 6.8-20.4 4.2-2.4-0.9-4.7-2.3-6.6-4.3l-13.9-13.9c-1.9-1.9-3.3-4.2-4.3-6.6-2.6 6.8-1.2 14.9 4.2 20.4l0.2 0.2 6.8 6.8c3.9 3.9 8.6 6.4 13.6 7.6 9.5 2.3 20-0.2 27.3-7.6l0.1-0.1c7.4-7.3 9.9-17.8 7.6-27.3z"/><path style="fill:#6cbe9b" d="m67.4 25.7-7-7c-3.9-3.9-8.6-6.4-13.6-7.6-9.5-2.3-20 0.2-27.3 7.6l-0.1 0.1c-7.4 7.4-9.9 17.8-7.6 27.3 1.2-5 3.7-9.7 7.6-13.6l6.8-6.8 0.1-0.1 0.1-0.1c5.5-5.4 13.6-6.8 20.4-4.2 2.4 0.9 4.7 2.3 6.6 4.3l13.9 13.9c1.9 1.9 3.3 4.2 4.3 6.6 2.6-6.8 1.2-14.9-4.2-20.4z"/><path style="fill:#266eb2" d="m74.2 18.8c-7.4-7.4-17.9-10-27.4-7.7 5 1.2 9.7 3.7 13.6 7.6l6.8 6.8 0.1 0.1 0.1 0.1c5.4 5.5 6.8 13.6 4.2 20.4-0.9 2.4-2.3 4.7-4.3 6.6l-13.9 13.9c-1.9 1.9-4.2 3.3-6.6 4.3 6.8 2.6 14.9 1.2 20.4-4.2l7-7c3.9-3.9 6.4-8.6 7.6-13.6 2.3-9.5-0.2-19.9-7.6-27.3z"/><path style="fill:#266eb2" d="m26.4 66.7v0l-0.2-0.2c-5.4-5.5-6.8-13.6-4.2-20.4 0.9-2.4 2.3-4.7 4.3-6.6l13.9-13.9c1.9-1.9 4.2-3.3 6.6-4.3-6.8-2.6-14.9-1.2-20.4 4.2l-7 7c-3.9 3.9-6.4 8.6-7.6 13.6-2.3 9.5 0.2 20 7.6 27.3l0.1 0.1c7.4 7.4 17.8 9.9 27.3 7.6-5-1.2-9.7-3.7-13.6-7.6l-6.8-6.8z"/><path style="opacity:.2;fill:#020203" d="m25 51.1c-1.2-1.5-2.2-3.3-2.9-5-2.6 6.8-1.2 14.9 4.2 20.4-4.1-4.2-4.6-10.7-1.3-15.4z"/><path style="opacity:.2;fill:#020203" d="m68.7 41.1c1.2 1.5 2.2 3.3 2.9 5 2.6-6.8 1.2-14.9-4.2-20.4 4.1 4.2 4.5 10.7 1.3 15.4z"/><path style="opacity:.2;fill:#020203" d="m51.9 68c-1.5 1.2-3.3 2.2-5 2.9 6.8 2.6 14.9 1.2 20.4-4.2-4.3 4.1-10.8 4.5-15.4 1.3z"/><path style="opacity:.2;fill:#020203" d="m41.8 24.3c1.5-1.2 3.3-2.2 5-2.9-6.8-2.6-14.9-1.2-20.4 4.2 4.2-4.1 10.7-4.6 15.4-1.3z"/></g></svg>
